HIERARCHY
ROOT Hips
{
	OFFSET 0.000000 103.266502 0.000000
	CHANNELS 6 Xposition Yposition Zposition Xrotation Yrotation Zrotation 
	JOINT Spine
	{
		OFFSET -0.002400 12.777504 0.315300
		CHANNELS 3 Xrotation Yrotation Zrotation
		JOINT Spine1
		{
			OFFSET -0.002067 5.816869 0.032633
			CHANNELS 3 Xrotation Yrotation Zrotation
			JOINT Spine1_split
			{
				OFFSET -0.002067 5.816869 0.032633
				CHANNELS 3 Xrotation Yrotation Zrotation
				JOINT Spine2
				{
					OFFSET -0.002067 5.816869 0.032633
					CHANNELS 3 Xrotation Yrotation Zrotation
					JOINT Neck
					{
						OFFSET -0.003700 21.199493 -0.826900
						CHANNELS 3 Xrotation Yrotation Zrotation
						JOINT Head
						{
							OFFSET 0.000000 20.442200 4.834800
							CHANNELS 3 Xrotation Yrotation Zrotation
							JOINT HeadTop_End
							{
								OFFSET 0.000000 34.668396 4.968400
								CHANNELS 3 Xrotation Yrotation Zrotation
								End Site
								{
									OFFSET 0.000000 0.000000 0.000000
								}
							}
						}
					}
					JOINT LeftShoulder
					{
						OFFSET 3.288150 8.794197 -1.372250
						CHANNELS 3 Xrotation Yrotation Zrotation
						JOINT LeftShoulder_split
						{
							OFFSET 3.288150 8.794197 -1.372250
							CHANNELS 3 Xrotation Yrotation Zrotation
							JOINT LeftArm
							{
								OFFSET 11.953299 -2.279007 -0.146200
								CHANNELS 3 Xrotation Yrotation Zrotation
								JOINT LeftForeArm
								{
									OFFSET 18.448900 0.000000 0.000000
									CHANNELS 3 Xrotation Yrotation Zrotation
									JOINT LeftHand
									{
										OFFSET 29.527798 0.000000 0.000000
										CHANNELS 3 Xrotation Yrotation Zrotation
										JOINT LeftHandThumb1
										{
											OFFSET 10.739754 -2.369614 9.225399
											CHANNELS 3 Xrotation Yrotation Zrotation
											JOINT LeftHandThumb2
											{
												OFFSET 4.926170 -2.844131 2.844125
												CHANNELS 3 Xrotation Yrotation Zrotation
												JOINT LeftHandThumb3
												{
													OFFSET 4.614891 -2.664413 2.664409
													CHANNELS 3 Xrotation Yrotation Zrotation
													JOINT LeftHandThumb4
													{
														OFFSET 4.432465 -2.559082 2.559083
														CHANNELS 3 Xrotation Yrotation Zrotation
														End Site
														{
															OFFSET 0.000000 0.000000 0.000000
														}
													}
												}
											}
										}
										JOINT LeftHandIndex1
										{
											OFFSET 26.467674 0.187653 6.405298
											CHANNELS 3 Xrotation Yrotation Zrotation
											JOINT LeftHandIndex2
											{
												OFFSET 8.792900 0.000000 0.000000
												CHANNELS 3 Xrotation Yrotation Zrotation
												JOINT LeftHandIndex3
												{
													OFFSET 10.075203 0.000000 0.000000
													CHANNELS 3 Xrotation Yrotation Zrotation
													End Site
													{
														OFFSET 0.000000 0.000000 0.000000
													}
												}
											}
										}
										JOINT LeftHandMiddle1
										{
											OFFSET 25.764404 0.000000 0.000000
											CHANNELS 3 Xrotation Yrotation Zrotation
											JOINT LeftHandMiddle2
											{
												OFFSET 9.393974 0.000000 0.000000
												CHANNELS 3 Xrotation Yrotation Zrotation
												JOINT LeftHandMiddle3
												{
													OFFSET 10.771950 0.000000 0.000000
													CHANNELS 3 Xrotation Yrotation Zrotation
													End Site
													{
														OFFSET 0.000000 0.000000 0.000000
													}
												}
											}
										}
										JOINT LeftHandRing1
										{
											OFFSET 24.660927 0.144547 -6.225808
											CHANNELS 3 Xrotation Yrotation Zrotation
											JOINT LeftHandRing2
											{
												OFFSET 9.393799 0.000000 0.000000
												CHANNELS 3 Xrotation Yrotation Zrotation
												JOINT LeftHandRing3
												{
													OFFSET 9.928497 0.000000 0.000000
													CHANNELS 3 Xrotation Yrotation Zrotation
													End Site
													{
														OFFSET 0.000000 0.000000 0.000000
													}
												}
											}
										}
										JOINT LeftHandPinky1
										{
											OFFSET 23.655350 0.125290 -12.815412
											CHANNELS 3 Xrotation Yrotation Zrotation
											JOINT LeftHandPinky2
											{
												OFFSET 8.425102 0.000000 0.000000
												CHANNELS 3 Xrotation Yrotation Zrotation
												JOINT LeftHandPinky3
												{
													OFFSET 8.147003 0.000000 0.000000
													CHANNELS 3 Xrotation Yrotation Zrotation
													End Site
													{
														OFFSET 0.000000 0.000000 0.000000
													}
												}
											}
										}
									}
								}
							}
						}
					}
					JOINT RightShoulder
					{
						OFFSET -3.249400 8.794197 -1.372250
						CHANNELS 3 Xrotation Yrotation Zrotation
						JOINT RightShoulder_split
						{
							OFFSET -3.249400 8.794197 -1.372250
							CHANNELS 3 Xrotation Yrotation Zrotation
							JOINT RightArm
							{
								OFFSET -11.953299 -2.279007 -0.146200
								CHANNELS 3 Xrotation Yrotation Zrotation
								JOINT RightForeArm
								{
									OFFSET -18.448900 0.000000 0.000000
									CHANNELS 3 Xrotation Yrotation Zrotation
									JOINT RightHand
									{
										OFFSET -29.527802 0.000000 0.000000
										CHANNELS 3 Xrotation Yrotation Zrotation
										JOINT RightHandThumb1
										{
											OFFSET -10.739754 -2.369614 9.225399
											CHANNELS 3 Xrotation Yrotation Zrotation
											JOINT RightHandThumb2
											{
												OFFSET -4.926170 -2.844131 2.844125
												CHANNELS 3 Xrotation Yrotation Zrotation
												JOINT RightHandThumb3
												{
													OFFSET -4.614891 -2.664413 2.664409
													CHANNELS 3 Xrotation Yrotation Zrotation
													JOINT RightHandThumb4
													{
														OFFSET -4.432465 -2.559082 2.559083
														CHANNELS 3 Xrotation Yrotation Zrotation
														End Site
														{
															OFFSET 0.000000 0.000000 0.000000
														}
													}
												}
											}
										}
										JOINT RightHandIndex1
										{
											OFFSET -26.467674 0.187653 6.405298
											CHANNELS 3 Xrotation Yrotation Zrotation
											JOINT RightHandIndex2
											{
												OFFSET -8.792900 0.000000 0.000000
												CHANNELS 3 Xrotation Yrotation Zrotation
												JOINT RightHandIndex3
												{
													OFFSET -10.075203 0.000000 0.000000
													CHANNELS 3 Xrotation Yrotation Zrotation
													End Site
													{
														OFFSET 0.000000 0.000000 0.000000
													}
												}
											}
										}
										JOINT RightHandMiddle1
										{
											OFFSET -25.764404 0.000000 0.000000
											CHANNELS 3 Xrotation Yrotation Zrotation
											JOINT RightHandMiddle2
											{
												OFFSET -9.393974 0.000000 0.000000
												CHANNELS 3 Xrotation Yrotation Zrotation
												JOINT RightHandMiddle3
												{
													OFFSET -10.771950 0.000000 0.000000
													CHANNELS 3 Xrotation Yrotation Zrotation
													End Site
													{
														OFFSET 0.000000 0.000000 0.000000
													}
												}
											}
										}
										JOINT RightHandRing1
										{
											OFFSET -24.660927 0.144547 -6.225808
											CHANNELS 3 Xrotation Yrotation Zrotation
											JOINT RightHandRing2
											{
												OFFSET -9.393799 0.000000 0.000000
												CHANNELS 3 Xrotation Yrotation Zrotation
												JOINT RightHandRing3
												{
													OFFSET -9.928497 0.000000 0.000000
													CHANNELS 3 Xrotation Yrotation Zrotation
													End Site
													{
														OFFSET 0.000000 0.000000 0.000000
													}
												}
											}
										}
										JOINT RightHandPinky1
										{
											OFFSET -23.655350 0.125290 -12.815412
											CHANNELS 3 Xrotation Yrotation Zrotation
											JOINT RightHandPinky2
											{
												OFFSET -8.425102 0.000000 0.000000
												CHANNELS 3 Xrotation Yrotation Zrotation
												JOINT RightHandPinky3
												{
													OFFSET -8.147003 0.000000 0.000000
													CHANNELS 3 Xrotation Yrotation Zrotation
													End Site
													{
														OFFSET 0.000000 0.000000 0.000000
													}
												}
											}
										}
									}
								}
							}
						}
					}
				}
			}
		}
	}
	JOINT LeftUpLeg
	{
		OFFSET 11.394100 -6.187798 -0.413800
		CHANNELS 3 Xrotation Yrotation Zrotation
		JOINT LeftLeg
		{
			OFFSET 0.430247 -32.302673 3.732800
			CHANNELS 3 Xrotation Yrotation Zrotation
			JOINT LeftFoot
			{
				OFFSET -0.430247 -48.264931 -6.423300
				CHANNELS 3 Xrotation Yrotation Zrotation
				JOINT LeftToeBase
				{
					OFFSET 4.230900 -16.068199 23.438400
					CHANNELS 3 Xrotation Yrotation Zrotation
					JOINT LeftToe_End
					{
						OFFSET 4.510700 0.695400 19.974600
						CHANNELS 3 Xrotation Yrotation Zrotation
						End Site
						{
							OFFSET 0.000000 0.000000 0.000000
						}
					}
				}
			}
		}
	}
	JOINT RightUpLeg
	{
		OFFSET -11.333700 -6.187798 -0.413800
		CHANNELS 3 Xrotation Yrotation Zrotation
		JOINT RightLeg
		{
			OFFSET -0.430392 -32.302628 3.733000
			CHANNELS 3 Xrotation Yrotation Zrotation
			JOINT RightFoot
			{
				OFFSET 0.430392 -48.264973 -6.423500
				CHANNELS 3 Xrotation Yrotation Zrotation
				JOINT RightToeBase
				{
					OFFSET -4.230900 -16.068199 23.438400
					CHANNELS 3 Xrotation Yrotation Zrotation
					JOINT RightToe_End
					{
						OFFSET -4.510700 0.695400 19.974600
						CHANNELS 3 Xrotation Yrotation Zrotation
						End Site
						{
							OFFSET 0.000000 0.000000 0.000000
						}
					}
				}
			}
		}
	}
}
MOTION
Frames: 4
Frame Time: 0.016667
0.473784 57.567688 -19.131294 35.857424 -0.271252 2.169254 11.083840 0.392237 -2.091978 22.176789 0.436128 -4.312041 0.000000 0.000000 0.000000 22.176803 0.436130 -4.312045 -24.273816 -2.101650 -0.458652 -32.969897 -5.781657 3.191221 0.000002 0.000000 -0.000000 0.640951 -3.294368 -0.953792 0.000000 0.000000 0.000000 -15.835099 -34.689957 -16.373890 4.580939 -102.085298 2.759660 44.263283 29.883577 20.699390 11.125191 -10.607979 5.635059 13.047543 13.035015 -0.568276 0.000001 0.000004 0.000002 -0.000002 0.000002 -0.000001 2.762758 -9.722653 -4.298512 -0.734985 0.012648 -24.937152 0.000002 0.000000 0.000000 0.691162 0.688880 -10.668321 -1.829421 -2.017365 -30.196027 -0.000001 -0.000001 -0.000000 0.170516 9.516313 -23.800791 -0.026565 -3.190983 -36.374808 -0.000001 -0.000000 -0.000000 0.671145 29.060829 -33.488124 0.187214 -6.380942 -42.445572 -0.000000 -0.000000 0.000002 5.833052 29.728006 10.839906 0.000000 0.000000 0.000000 -38.904327 17.802036 21.911295 10.180121 60.700321 -18.967888 39.144924 -25.749531 -58.258078 -28.903093 10.876028 -5.700020 1.644018 -0.336624 -1.627249 0.000009 -0.000011 0.000008 0.000001 0.000000 0.000000 -1.509180 6.134589 4.269184 0.284814 -2.247831 5.347508 0.000000 0.000000 0.000000 -0.686660 -1.935909 4.591086 -0.718856 0.493051 15.506162 0.000001 0.000000 0.000000 2.037178 -12.730994 11.026372 0.036375 2.329715 17.761658 -0.000001 0.000002 -0.000001 6.527993 -28.103850 17.554855 -0.488531 6.557315 19.904213 0.000000 0.000003 -0.000002 -116.665450 -21.475430 27.745970 124.517586 7.249621 0.246770 -16.602887 -17.972683 -24.146440 -29.804077 0.525332 -1.193161 0.000001 -0.000003 -0.000001 -134.234336 -2.115811 -13.308255 132.746270 7.997311 -0.763576 -10.132814 -0.171187 -10.293473 -40.777343 -0.185478 -1.536663 -0.000001 0.000000 0.000000 
0.296024 56.181885 -19.113873 37.253706 1.319758 1.893812 10.522121 0.302646 -1.891263 21.050926 0.321394 -3.994272 0.000000 0.000000 0.000000 21.050947 0.321397 -3.994275 -21.738766 -2.217308 -0.825594 -34.315656 -6.604940 3.109562 -0.000001 -0.000000 -0.000000 0.343002 -2.949975 -1.792631 0.000000 0.000000 0.000000 -16.403958 -37.051263 -18.318929 2.482823 -100.497559 0.139160 47.566383 27.306022 17.670598 11.188561 -11.111352 6.012799 11.620602 14.042185 -0.106128 -0.000000 0.000002 0.000003 -0.000001 0.000001 0.000000 3.446688 -9.799936 -1.845122 -0.760085 -0.016571 -25.262913 -0.000003 0.000003 -0.000003 0.747683 0.207638 -8.580249 -1.876519 -2.032478 -30.535167 -0.000001 -0.000000 -0.000001 0.085829 9.613152 -22.173791 -0.014837 -3.214896 -36.633819 0.000000 0.000000 -0.000000 -0.053531 29.550523 -31.903387 0.218718 -6.412748 -42.751517 -0.000000 -0.000000 0.000002 5.774370 29.321377 12.382901 0.000000 0.000000 0.000000 -39.766096 19.774410 22.445566 8.302418 57.691650 -16.019514 40.345265 -23.597496 -59.666231 -31.298167 12.346697 -7.537888 1.803068 -0.055160 -1.277181 0.000009 -0.000011 0.000009 -0.000001 -0.000001 0.000001 -1.571554 6.221600 2.837440 0.274707 -2.142570 6.406117 -0.000001 -0.000000 -0.000001 -0.726559 -1.842134 4.353595 -0.734667 0.515549 15.825676 0.000000 0.000000 -0.000002 2.017710 -12.871194 10.562707 0.036064 2.354662 18.021452 -0.000003 0.000001 0.000000 6.575642 -28.588184 17.176295 -0.497814 6.579880 20.205325 0.000000 0.000000 0.000000 -112.714616 -22.793979 30.199477 124.513761 6.663748 0.273225 -20.257812 -16.679457 -28.666864 -30.881413 0.389178 -1.463142 0.000001 0.000004 0.000001 -139.574765 -0.575746 -12.000057 135.739423 5.963129 -0.467526 -8.479158 -0.542977 -8.864871 -41.811611 0.175462 -2.344922 0.000002 0.000000 -0.000000 
0.150948 54.948753 -19.110626 38.517991 2.691017 1.580520 9.881149 0.272378 -1.636591 19.767513 0.228246 -3.621572 0.000000 0.000000 0.000000 19.767503 0.228246 -3.621571 -19.301394 -2.327292 -1.169202 -35.559754 -7.352562 3.025419 0.000004 -0.000000 -0.000000 0.020301 -2.572768 -2.855808 0.000000 0.000000 0.000000 -17.018357 -39.190478 -20.988085 0.982712 -97.925105 -1.973447 50.723498 23.806843 15.248145 11.263546 -11.680987 6.443937 9.567417 15.252094 0.466260 0.000003 0.000004 0.000002 0.000001 0.000001 -0.000001 4.242344 -9.839367 0.880825 -0.788967 -0.049298 -25.632411 -0.000001 0.000001 -0.000000 0.850831 -0.260203 -6.350886 -1.929579 -2.048767 -30.911964 -0.000001 -0.000003 -0.000001 0.007495 9.769571 -20.426799 -0.002238 -3.242807 -36.940118 0.000000 -0.000000 -0.000000 -0.979640 29.990428 -30.003921 0.254541 -6.449632 -43.107912 0.000000 -0.000000 0.000002 5.824606 28.867798 13.884149 0.000000 0.000000 0.000000 -39.853116 20.536062 22.693078 6.574791 55.607712 -13.152830 41.209984 -21.195269 -61.261176 -33.487021 13.898115 -9.125756 2.049870 0.409627 -0.803317 0.000009 -0.000010 0.000008 -0.000002 -0.000001 -0.000000 -1.697775 6.426639 1.495229 0.265364 -2.026616 7.570308 0.000001 -0.000000 0.000000 -0.774791 -1.732073 4.150756 -0.747658 0.537071 16.125687 0.000002 -0.000000 0.000000 1.998254 -12.963665 10.222170 0.036647 2.380258 18.283472 -0.000000 0.000001 0.000001 6.654022 -29.138516 16.814425 -0.510100 6.601667 20.511406 -0.000001 0.000002 -0.000002 -111.206702 -24.075414 31.656663 124.672549 6.097075 0.244672 -22.076553 -16.367835 -31.567434 -31.475544 0.137948 -1.640710 -0.000001 0.000002 0.000000 -144.583111 0.474818 -10.956326 138.387952 4.279652 -0.314881 -6.924555 -0.894451 -7.825032 -41.656166 0.256757 -2.698143 -0.000000 -0.000000 0.000000 
0.023814 53.901970 -19.129822 39.633709 3.848958 1.292726 9.202497 0.266657 -1.364632 18.408710 0.142229 -3.175028 0.000000 0.000000 0.000000 18.408705 0.142230 -3.175026 -17.035880 -2.424129 -1.481492 -36.678751 -8.013697 2.944160 0.000002 -0.000000 -0.000000 -0.284222 -2.135470 -4.160782 0.000000 0.000000 0.000000 -17.677330 -40.741901 -24.178923 -0.080820 -94.687876 -3.562415 53.370159 19.581290 13.653765 11.343372 -12.273124 6.900006 6.708300 16.475116 1.460185 0.000003 0.000004 0.000005 -0.000002 0.000004 -0.000000 5.234340 -9.820466 4.263367 -0.819170 -0.080980 -26.000239 -0.000002 -0.000001 -0.000000 1.074208 -0.480984 -4.034311 -1.984924 -2.064404 -31.305127 0.000002 -0.000003 0.000001 -0.066302 10.084478 -18.359065 0.011143 -3.271445 -37.253402 -0.000002 -0.000000 -0.000000 -2.129059 30.421352 -27.650984 0.291438 -6.488840 -43.471251 -0.000000 0.000000 0.000002 5.973602 28.508233 15.261346 0.000000 0.000000 0.000000 -39.460550 20.823684 22.407598 5.371279 54.315645 -10.616666 41.903962 -19.438153 -62.692749 -34.145608 14.695644 -8.490566 2.362734 0.806159 -0.204927 0.000008 -0.000011 0.000008 -0.000000 -0.000001 -0.000001 -1.881068 6.920212 0.918374 0.258634 -1.909408 8.741232 0.000000 0.000000 0.000001 -0.827270 -1.607682 4.041268 -0.757723 0.556767 16.394291 0.000001 -0.000000 0.000000 1.986208 -12.991882 10.062149 0.038633 2.401863 18.499120 -0.000001 0.000000 0.000001 6.755799 -29.733535 16.485440 -0.523445 6.614812 20.722044 0.000001 0.000002 -0.000004 -114.027911 -25.668367 31.107028 125.925507 6.045807 0.199452 -21.604389 -17.606476 -32.178794 -31.513123 -0.218603 -1.703810 -0.000001 -0.000000 0.000000 -148.921975 1.198715 -10.509797 140.549611 3.046041 -0.267434 -5.809201 -1.327218 -7.220393 -40.890068 -0.103637 -2.531044 -0.000000 -0.000001 -0.000000 
